<svg xmlns="http://www.w3.org/2000/svg" viewBox="0 0 101.58 105.07"><defs><style>.cls-1{fill:#2048bd;}.cls-2{fill:#206bc4;}.cls-3{opacity:0.1;}.cls-4{fill:#fafafa;}</style></defs><g id="Capa_2" data-name="Capa 2"><g id="OBJECTS"><rect class="cls-1" y="3.49" width="101.58" height="101.58" rx="24.92"/><rect class="cls-2" width="101.58" height="101.58" rx="24.92"/><path class="cls-3" d="M101.58,76.66V51.55L65.11,15.08,59,14.37,44.42,40s5.34,25.65,6,27.5S45,84.75,45,84.75L6,87.55,19.41,101a25.09,25.09,0,0,0,5.51.63H76.66A24.92,24.92,0,0,0,101.58,76.66Z"/><path class="cls-4" d="M24.92,98.5H76.66a21.83,21.83,0,0,0,18.91-11,20.37,20.37,0,0,0-2.45-4.62c-3.51-4.72-25.63-11.72-26.61-12.51a53.41,53.41,0,0,1-4.06-5h-.22V60.86a26.28,26.28,0,0,0,3-4.73,21.68,21.68,0,0,0,1.14-5.35C70,49.11,70.48,43.28,70.63,40c.06-1.39-.51-1.67-1.22-1.52.15-.54.27-1,.35-1.48a37.27,37.27,0,0,0,1.38-11.88l1.54.05a26.72,26.72,0,0,0-9.43-10l1.86-.07A24.44,24.44,0,0,0,51.59,9.79l1-.76a24.66,24.66,0,0,0-12.31,6,14.65,14.65,0,0,0-3.4-1.09l1.71,1.48a14.33,14.33,0,0,0-7.4,3l1.63.13a31.35,31.35,0,0,0-5.25,8.35l1.69-.21a91.61,91.61,0,0,0,2.9,10.93c0,.13,0,.27,0,.4a2.53,2.53,0,0,0,0,.48c-.62-.06-1.09.29-1,1.55.16,3.27.6,9.1,4.25,10.77a21.56,21.56,0,0,0,1.14,5.35,26,26,0,0,0,2.93,4.62v4.69h-.21a53.83,53.83,0,0,1-4.07,5c-1,.79-23.1,7.79-26.61,12.51A20,20,0,0,0,6,87.55,21.83,21.83,0,0,0,24.92,98.5Z"/></g></g></svg>