<?xml version="1.0" encoding="utf-8"?>
<!-- Generator: Adobe Illustrator 26.1.0, SVG Export Plug-In . SVG Version: 6.00 Build 0)  -->
<svg version="1.1" id="Capa_1" xmlns="http://www.w3.org/2000/svg" xmlns:xlink="http://www.w3.org/1999/xlink" x="0px" y="0px"
	 viewBox="0 0 800 301" style="enable-background:new 0 0 800 301;" xml:space="preserve">
<style type="text/css">
	.st0{display:none;fill:#FDFDFD;}
	.st1{fill:#6EB130;}
	.st2{fill:#E48C18;}
	.st3{fill:#D0C814;}
	.st4{fill:#5A4380;}
	.st5{fill:#103D49;}
	.st6{fill:#5A4480;}
	.st7{fill:#123C49;}
	.st8{fill:#113D4A;}
	.st9{fill:#123B49;}
	.st10{fill:#E99219;}
	.st11{fill:#103C49;}
	.st12{fill:#113C49;}
	.st13{fill:#6DB131;}
	.st14{fill:#2E8ED0;}
	.st15{fill:#1A3E43;}
	.st16{fill:#1A4347;}
	.st17{fill:#1C4046;}
	.st18{fill:#1F4149;}
	.st19{fill:#1F4147;}
	.st20{fill:#204448;}
	.st21{fill:#1E4246;}
	.st22{fill:#1C4148;}
	.st23{fill:#1E4147;}
	.st24{fill:#194144;}
	.st25{fill:#193E43;}
	.st26{fill:#D1CA1A;}
	.st27{fill:#DBA250;}
	.st28{fill:#D2AA5E;}
	.st29{fill:#DED77E;}
	.st30{fill:#EAE29F;}
	.st31{fill:#FBFCFB;}
	.st32{fill:#F6FAF9;}
	.st33{fill:#F8FAF9;}
	.st34{fill:#EFF5F5;}
	.st35{fill:#F3F7F7;}
	.st36{fill:#F1F6F7;}
	.st37{fill:#F3F7F8;}
</style>
<g>
	<path class="st0" d="M1077.9,170c0,219.5,0,439,0.1,658.5c0,4.9-1.1,6-6,6c-439-0.1-878.1-0.1-1317.1,0c-4.9,0-6-1.1-6-6
		c0.1-439,0.1-878.1,0-1317.1c0-4.9,1.1-6,6-6c439,0.1,878.1,0.1,1317.1,0c4.9,0,6,1.1,6,6C1077.9-269,1077.9-49.5,1077.9,170z"/>
	<path class="st1" d="M114.5,271.3c34.2-28.8,63.5-61.4,91-95.7c27.5-34.3,51.8-70.9,74.7-109.6c7.4,12.7,11.7,25.7,13.9,39.2
		c6.2,38.1-2.5,73.3-22,106.1c-0.2,0.4-0.6,0.7-0.7,1.1c-3.5,8.8-8.2,13-19.3,11.3c-13.5-2.2-24.1,5.1-30.2,17.7
		c-1.5,3-3.3,5.4-6.5,6.8c-31.4,13.5-64.1,21.8-98.2,24.1C116.5,272.2,116,271.8,114.5,271.3z"/>
	<path class="st2" d="M195.6,113c14-11.6,27.7-23.5,40.9-36.1c18.3-17.4,34.6-36.4,50.8-55.7c1.3-1.5,2.5-3.1,3.8-4.6
		c5.6-0.6,3.5,3.1,3.2,5.8c-9.1,21.1-20.6,40.8-33.9,59.6c-32.9,46.5-73.3,84.8-123.4,112.3c-19.5,10.7-40.1,18.8-61.8,24.1
		c-6.2,1.5-12.5,1.6-18.7,0.9c-8.6-1-16.4-15.7-12.8-23.6c0.8-1.8,2.2-2.5,4.1-2.5c24.1-0.9,45.7-10.4,66.5-21.3
		c22.7-11.9,43.8-26.3,62.9-43.5c2.9-4.9,7-8.6,11.8-11.6C191.3,115.7,193.3,114,195.6,113z"/>
	<path class="st3" d="M190.5,117.8c-5.6,2.1-8,8-13.2,10.6c-3.4-1.6-6.8-0.2-9.8,0.9c-17.3,6-40-8.9-44.2-25.9
		c-4.1-16.8,0.2-31.5,13.6-42.9c12.3-10.5,26.1-10.8,40.5-4.7c2.1,2.5,5.2,3.5,7.7,5.3c11.5,11.3,15.8,24.6,10.8,40.4
		c-1.1,3.4-2.1,6.8-3.1,10.2C192.2,113.7,191.8,115.9,190.5,117.8z"/>
	<path class="st4" d="M37.7,118.8c8.4,24.4,20,34.6,40,35.5c19.8,0.9,34.3-9.7,45-33.1c7.6,8.2,16.2,14.5,27.8,15.5
		c-0.2,0.8-0.2,1.6-0.6,1.8c-26.9,18-54,35.8-84.7,47c-10.3,3.8-20.9,5.6-31.8,2.9c-10.7-2.6-14.7-7.8-14.8-18.9
		C18.5,152.3,27.5,128.2,37.7,118.8z"/>
	<path class="st5" d="M634.3,196.4c-20.5-0.1-32.6-11.8-33.5-32.3c-1.3-31.1,23.3-54,51.6-47.7c13.9,3,22.3,11.5,25,25.6
		C682.9,170.6,662.3,196.6,634.3,196.4z"/>
	<path class="st6" d="M77.5,145.6c-19.5,0-34-14.5-33.9-34c0-19.5,16.1-35.5,35.4-35.4c20.3,0.1,35.7,16.1,35.5,36.7
		C114.3,130.3,96.9,145.6,77.5,145.6z"/>
	<path class="st7" d="M714.8,129.6c5.5-5.3,10.1-9.7,16.5-11.8c17.4-5.7,31.3,4.3,30.5,22.5c-0.8,17.3-4.5,34.2-7,51.3
		c-0.3,2.3-1.3,3.5-3.8,3.4c-0.2,0-0.4,0-0.6,0c-5.6-0.1-12.8,2-16.4-0.7c-4.2-3.2-0.1-10.3,0.4-15.7c0.8-10.1,2.6-20.1,3.8-30.2
		c0.5-4.2-0.1-8.3-4.1-10.8c-4.2-2.6-8-0.5-11.6,1.4c-6,3.1-8.1,8.7-9,14.9c-1.7,11.5-3.6,23-4.9,34.6c-0.5,4.8-2.1,7-7.2,6.4
		c-5.3-0.6-12.4,2.3-15.6-1c-3.3-3.5,0.6-10.1,1.4-15.4c2.7-18.6,5.7-37.1,8.4-55.7c0.6-4.3,2.3-6.2,6.6-5.4
		c0.8,0.2,1.7,0.1,2.6,0.1C715.5,117.8,715.5,117.8,714.8,129.6z"/>
	<path class="st8" d="M433,163.6c-3.9-0.3-7.8-0.3-11.6-0.9c-4.6-0.7-4.6,1-3.1,4.6c2.6,6.3,7,9.7,13.7,10.4
		c6.3,0.7,12.6,0.6,18.7-1.1c4-1.1,5.7-0.3,6.5,4.1c2.2,12.1,2.4,12-10,14c-8.6,1.4-17.2,2-25.8,0.4c-12.5-2.2-20.4-9.6-23.7-21.9
		c-6.4-23.9,10.6-52.1,34.5-57.1c5.8-1.2,11.6-1.1,17.3,0.5c16.4,4.5,23.7,25.6,13.7,39.5c-2.1,2.8-5.1,4-8.2,4.9
		C447.7,163.1,440.4,163.5,433,163.6z"/>
	<path class="st9" d="M356.4,194.5c-8.2,0-16.4-0.2-24.7,0.1c-3.8,0.1-5.5-0.7-4.9-5c4.8-32.3,9.4-64.6,13.9-96.9
		c0.5-3.3,1.9-4.4,5-4.2c4.5,0.2,9.1,0.3,13.6-0.1c4.2-0.3,5.2,1.1,4.6,5.2c-3.3,20.1-6.3,40.1-9.4,60.2c-0.9,5.6-1.4,11.2-2.4,16.7
		c-0.7,3.7,0.5,5,4.3,4.9c9.1-0.3,18.2,0,27.2-0.3c4.2-0.2,5.3,1.2,4.6,5.2c-2.6,16.2,2.2,13.8-15.1,14.1c-5.6,0.1-11.2,0-16.9,0
		C356.4,194.4,356.4,194.5,356.4,194.5z"/>
	<path class="st10" d="M169.4,197.1c-15.8,19.9-32.8,38.8-51.7,55.7c-10.1,9-20.6,17.5-31,26.2c-10.2,8.5-21,4.2-23.7-8.8
		c-1.8-8.5-0.5-16.8,0-25.1c0.3-5,5-4.1,8-4.7c19.5-4,38-10.5,55.4-20.3c15.4-8.8,29.9-18.8,44.1-29.4c2.6,0,2.5,1.5,1.6,3.1
		C171.4,194.9,170.4,196,169.4,197.1z"/>
	<path class="st11" d="M490.9,196c-3.8,0.1-9.7-0.7-15.3-3.3c-3.6-1.6-4.9-4-3.3-7.7c0.9-2.2,1.8-4.4,2.8-6.6
		c1.3-3.1,3.2-4.2,6.6-2.6c4.7,2.2,9.8,3.6,15,3.5c3.9-0.1,7.4-1.4,8.7-5.4c1.3-4.1-0.9-7.2-4.2-9.3c-2.1-1.4-4.6-2.4-7-3.3
		c-8.2-3-14.8-7.6-15.3-17.2c-0.5-10.1,3.4-18.1,12.2-23.4c12.4-7.4,25.3-5.6,38.2-1.9c0.6,0.2,1.6,0.6,1.6,0.9
		c0,5.1-3.3,9.1-5.1,13.6c-1.1,2.8-3.3,0.8-5,0.3c-4.8-1.7-9.5-3-14.5-1.3c-2.7,0.9-5.4,2.1-5.7,5.5c-0.2,2.9,1.6,4.9,3.9,6.2
		c2.6,1.4,5.4,2.7,8.2,3.9c8.6,3.7,15.7,8.9,15.9,19.1c0.2,10.8-5,19-14.3,24.4C507.9,195,500.6,195.9,490.9,196z"/>
	<path class="st12" d="M555.7,195.6c-5.8-0.4-11.6-0.8-17.3-2.3c-3.3-0.9-5.1-2.4-2.9-5.9c0.5-0.7,0.7-1.6,1.1-2.3
		c1.7-3.5,2.6-8.3,5.3-10.1c2.7-1.8,6.3,2.6,9.9,3.2c0.4,0.1,0.8,0.3,1.2,0.4c7.2,1.9,13.5,0.3,14.9-4c2.3-7.2-3.5-9.4-8.1-12
		c-6.8-3.8-14.2-6.9-16.6-15.3c-3.4-11.9,2.6-23.2,15.4-28.4c10.7-4.3,21.5-3.9,32.4-0.5c3.7,1.2,4.9,3.2,2.5,6.7
		c-0.7,1.1-1.3,2.2-1.9,3.4c-2.1,4.7-4.2,7.8-10.3,4.1c-3.9-2.4-8.9-1.8-13.2,0.3c-5.1,2.4-5.7,6.6-1.1,9.9
		c3.3,2.4,7.2,3.9,10.8,5.8c9,4.9,13.7,12.2,13,22.7c-0.8,10.4-6.4,17.1-15.7,21.1C569.1,195,562.5,195.7,555.7,195.6z"/>
	<path class="st13" d="M276.1,253.3c-0.1,16-11.4,27.4-26.7,27.1c-14.4-0.3-25.2-12-25.2-27.3c0-14.2,12.9-26.1,28.3-25.9
		C266.4,227.4,276.2,238.2,276.1,253.3z"/>
	<path class="st14" d="M99.5,284.3c40.4,1.8,78.3-8.1,115.3-23.2c3.6-1.5,5.9-1.8,6.9,3.1c1,4.6,2.9,9.2,6.3,12.6
		c4.1,4.1,2.5,5.8-2.2,7.2c-16.4,5-33,8.9-50,10c-23.8,1.6-47.5,0.8-70.4-7.3C103.4,286,101.5,285.1,99.5,284.3z"/>
	<path class="st15" d="M383.5,233.1c-1.1,6.7-2.5,14.5-3.7,22.4c-0.4,2.4-1.6,3.3-4,3.1c-3.2-0.2-2.4-2.4-2.1-4.2
		c0.9-6.2,2-12.4,3-18.5c1.1-6.4-1.2-11.5-5.5-12.2c-4.2-0.7-9.7,3.8-10.7,9.3c-1.2,6.8-2,13.7-3,20.5c-0.4,2.7-0.3,5.9-4.7,5.1
		c-4.3-0.7-2-3.6-1.8-5.5c0.7-6.4,1.9-12.8,2.6-19.2c0.4-3.9,0.3-8.2-4.8-9.2c-5.1-0.9-8.9,1.4-10.7,6.3c-2.5,7-2.3,14.5-3.8,21.6
		c-0.3,1.3-0.4,2.6-0.6,3.8c-0.5,2.3-2.2,2.2-4,2.1c-2.3-0.1-2.3-1.6-2-3.2c1.7-11.5,3.4-23,5.2-34.6c0.2-1.5,0.9-3,2.8-3
		c1.6,0,2.3,1,2.4,2.4c0.2,3.2,1.8,3,3.7,1.5c6.1-4.6,11.5-5.8,16.2,2c2,3.3,3.2-0.3,4.2-1.2c4.2-3.8,8.8-5.6,14.2-3.4
		C381.9,221.5,383.7,226.2,383.5,233.1z"/>
	<path class="st16" d="M680.8,233.3c-0.9,6.4-1.9,13.9-2.8,21.4c-0.3,2.6-1.4,3.8-4.2,3.6c-3.2-0.3-2.4-2.5-2.2-4.3
		c0.8-6.2,1.9-12.4,2.6-18.6c0.6-4.8-0.1-9.3-6-10.4c-4.9-0.9-9.6,2.7-10.6,8.3c-1.2,6.4-1.8,12.8-2.6,19.3
		c-0.3,2.7,0.2,6.3-4.3,5.4c-4.1-0.8-2-4.2-1.9-6.4c0.5-6,1.5-12,2.3-18c0.6-4.4-0.9-8.5-5.5-8.5c-4.2-0.1-9.2,0.6-10,6.9
		c-0.9,7.3-2.5,14.5-3.7,21.7c-0.4,2.3,0,5.1-3.7,4.5c-3-0.5-2.8-2.7-2.7-5c0.6-10.1,4.1-19.9,3.7-30.2c-0.1-3.4,3.4-2.9,4.8-1.9
		c3.4,2.6,5.5,0.4,8.1-1c4.8-2.8,9.6-2.2,12.7,2.1c2.6,3.6,4,2.5,6.4,0.3c4-3.6,8.6-5.1,13.7-2.4C679.6,222.7,681.1,227,680.8,233.3
		z"/>
	<path class="st17" d="M571.4,253.6c-0.6,0.2-1.3,0.3-1.7,0.6c-5.1,3.4-10.4,5.6-16.2,1.6c-5.8-4-7.2-9.9-6.5-16.6
		c1.6-16,10.8-22.7,26.1-18.7c1.8,0.5,3.3,0.7,4.9-0.3c4.4-2.5,5.7-1.4,4.9,3.6c-1.8,10.7-3,21.4-4.7,32.1
		c-2.3,14.7-13.8,22.6-26.9,18.9c-2.3-0.7-5.7-1-4.9-4.7c0.9-4.1,3.6-2.1,6.1-1.4C563.4,272,571.2,265.8,571.4,253.6z"/>
	<path class="st18" d="M420.4,231.1c-1.4,8.3-2.8,16.6-4.1,24.9c-0.6,3.8-3.1,3.8-4.8,1.6c-2.4-3.1-4.1-1.7-6.5-0.4
		c-6.5,3.7-12.5,2.7-15.9-2.6c-3.3-5.2-1.7-11.6,4-15.9c4.3-3.2,9.1-5,14.4-5.1c2.6-0.1,4.7-0.2,5-3.5c0.3-3.3-1.1-5.5-4.2-6.3
		c-3.4-0.9-6.8-0.9-10.1,0.7c-1.3,0.7-2.5,0.2-3.1-1.2c-0.7-1.5,0-2.5,1.3-3.1c5.8-2.9,11.6-2.6,17.5-0.1
		C418.8,222.2,420.4,226.1,420.4,231.1z"/>
	<path class="st19" d="M532.3,255c-3.1,1.4-5.9,3-8.9,4c-5.2,1.6-9.9,0.5-13.1-4.3c-3.3-4.9-2-9.5,1.4-13.7c3.8-4.7,9-6.3,14.9-6.7
		c2.8-0.2,7.8,1.5,6.5-4.7c-1-5-4.3-6.6-9-6.2c-0.8,0.1-1.6,0.5-2.4,0.8c-2,0.7-4.4,3.5-5.7-0.4c-1.1-3.5,2.5-3.6,4.4-4.3
		c11.2-4.3,20.7,2.7,19.9,14.6c-0.4,6.9-1.6,13.7-2.4,20.6c-0.3,2,0.3,4.8-2.8,5C531.7,259.9,533.9,256,532.3,255z"/>
	<path class="st20" d="M704.8,241c-1.9-0.1-3-0.4-4.1-0.3c-2.3,0.2-5.7-1.9-6.7,1.6c-0.9,3.4-0.1,7,3.1,9.3c3.8,2.7,8,2.8,12.4,1.9
		c1.9-0.4,4.4-1,4.9,1.5c0.5,2.4-2.1,3.1-3.8,3.6c-11.8,2.9-24.6-1.4-23.9-16.8c0.4-9.7,4.7-17,13.5-21.3c4.8-2.4,9.8-2.1,14.2,1
		c4.9,3.5,6.2,8.7,4.9,14.4c-1.2,5.2-5.8,4.3-9.5,4.9C707.9,241.2,705.9,241,704.8,241z"/>
	<path class="st21" d="M609.1,254.1c0.6,0,1.3-0.1,1.9-0.1c2-0.2,4.9-2.2,5.6,0.7c0.7,3.1-2.9,3.2-4.9,3.8c-8,2.3-16.9-0.6-20.9-6.5
		c-4.5-6.7-3.8-17.2,1.8-25c4.4-6.2,13.7-9.8,20.6-7.9c5.5,1.5,9.1,7.5,8.3,13.7c-0.8,6.1-5.1,7.3-10.4,7.3c-3.4,0-6.9,0.1-10.3,0.2
		c-6.1,0.1-7.5,2.7-4.5,8C598.4,252.3,602.1,253.9,609.1,254.1z"/>
	<path class="st22" d="M461.1,234.9c-0.7,5.2-1.6,12.3-2.4,19.3c-0.4,3.1-1.7,4.7-5,4.2c-3.9-0.6-1.8-3.1-1.6-4.9
		c0.8-6.6,1.8-13.2,2.6-19.9c0.5-3.8,0-7.5-3.9-9.5c-3.8-1.9-6.6,0.7-9.4,2.7c-2.7,1.9-4.3,4.7-4.8,8.1c-1,6.4-2.3,12.7-3.1,19.1
		c-0.4,3.1-1.5,4.8-4.8,4.3c-3.7-0.5-2.1-3.2-1.9-5c1.3-10.3,2.8-20.5,4.3-30.7c0.2-1.3-0.4-3.3,1.8-3.5c1.8-0.2,3.6,0.2,3.9,2.4
		c0.6,4.3,2.4,2.2,4.1,0.9c4.2-3.2,8.5-6.3,14.1-3.2C460.5,222.2,461.4,227.4,461.1,234.9z"/>
	<path class="st23" d="M503.4,232.6c-1.1,7.5-2.2,14.9-3.4,22.4c-0.4,2.6-1.5,4.6-4.6,4.1c-3.6-0.6-1.9-3.2-1.7-5.1
		c0.9-6.2,2.2-12.3,2.9-18.5c0.5-4.4,1.4-9.4-4.8-11c-5.1-1.3-11.5,2.4-13.2,8c-1.9,6.2-2.2,12.7-2.8,19.2c-0.1,1.5-0.2,3-0.4,4.5
		c-0.4,2.9-2.6,2.3-4.5,2.3c-2.5,0.1-2.7-1.4-2.4-3.4c1.7-11.3,2.4-22.7,5.3-33.8c0.3-1.3,0.4-2.7,2-2.9c1.6-0.2,2.3,0.9,2.6,2.2
		c0.9,4,2.9,2.5,5.1,1.1c3.9-2.7,8.1-4.3,12.8-2.2C502.2,221.8,503.8,226.6,503.4,232.6z"/>
	<path class="st24" d="M736.2,224.4c2.1-1.5,3.7-3,5.5-4.1c7.1-4.1,15.2-1.2,16.8,6.7c2,10-0.9,19.7-2.4,29.5
		c-0.4,2.5-2.5,2-4.1,1.9c-2.7-0.1-2.1-2.2-1.9-3.8c0.7-6.6,1.7-13.3,2.2-19.9c0.3-4.4,0-9.4-5.7-10c-5.4-0.6-9.9,2.4-11.3,7.8
		c-1.8,7.1-2.8,14.4-3.9,21.7c-0.4,2.9-1.2,4.4-4.4,4.1c-3.8-0.3-2.4-3-2.2-4.8c1.1-9.4,2.4-18.8,3.8-28.2c0.3-2.2-0.6-5.3,2.5-6
		C735.2,218.2,734,222.8,736.2,224.4z"/>
	<path class="st25" d="M769.5,250.8c0.9-8.1,1.5-14.3,2.2-20.6c0.3-2.7,1.4-5.7-3.1-6.1c-1.5-0.1-1.9-1.6-1.7-3
		c0.1-1.3,1.2-1.8,2.3-1.8c4,0.1,5.1-2.2,5.3-5.7c0.1-2.1,0.9-3.8,3.5-3.8c3.1,0.1,2.7,2.4,2.5,4.2c-0.6,4.6,1.6,5.7,5.6,5.1
		c1.7-0.2,3.9-0.2,4.1,2c0.2,2.8-2.4,3-4.1,2.8c-6.6-0.7-8,2.9-8,8.5c0,4.5-0.8,9-1.2,13.5c-0.3,3.6-1,7.1,4.5,8.1
		c3.7,0.6,2,3-0.1,4.4c-2.4,1.6-5,1.1-7.4-0.1C770,256.3,769.2,252.9,769.5,250.8z"/>
	<path class="st26" d="M229.4,66.4c2.3-0.1,4.7-0.8,7.6,0.4c-8,8.6-16.6,16-25.7,22.9c-3.1,2.4-5,1.9-5.2-2.3
		c-0.1-1.3-0.3-2.6-0.1-3.9c0.7-4.2-5.1-8.8-1.8-11.3c3.7-2.8,9.7-2.5,14.7-3.6C222.2,67.2,226,67.8,229.4,66.4z"/>
	<path class="st27" d="M294.3,22.4c-0.5-2.2,0.7-5.4-3.2-5.8c2.7-3.5,5.5-7.1,8.2-10.6c0.5-0.6,1.1-1,3-2.7
		C299.4,10.9,298.3,17.2,294.3,22.4z"/>
	<path class="st28" d="M169.4,197.1c-0.9-2.4,4.5-3.7,1.2-6.5c3.2-4.3,7.7-7,12.1-9.8C178.9,186.8,175.3,192.9,169.4,197.1z"/>
	<path class="st29" d="M185.1,61c-3.9,0.2-6.6-1.4-7.7-5.3C180.6,56.5,183.9,57.3,185.1,61z"/>
	<path class="st30" d="M229.4,66.4c-3,3-6.8,2.4-10.5,2.3C221.8,65.6,225.6,66.1,229.4,66.4z"/>
	<path class="st31" d="M654.4,152.3c-0.4,7.6-2.6,14.5-6.9,20.7c-2.9,4.2-6.7,6.6-12,6.1c-5.2-0.5-8-3.9-9.7-8.4
		c-4.4-11.9-2.2-23,5.4-32.9c3.1-3.9,7.4-6,12.6-5c5.3,1,7.9,5.1,9.2,9.8C653.9,145.8,654,149.1,654.4,152.3z"/>
	<path class="st32" d="M432.9,147.5c-2.3,0-3.6,0.1-4.8,0c-2.4-0.3-5.9,1.3-7-1.5c-1.1-2.7,1-5.4,2.8-7.5c4-4.6,9.2-7.2,15.4-6.6
		c5.3,0.5,8,3.9,8.2,9.1c0.3,5.5-3.7,6-7.8,6.2C437.1,147.2,434.5,147.4,432.9,147.5z"/>
	<path class="st33" d="M575.5,232.8c-0.9,5-1.1,10.3-4.2,14.7c-2.7,3.8-6.5,6.1-11.1,5c-4.8-1.2-6.5-5.4-6.4-10.1
		c0.1-5.6,0.7-11.3,5-15.6c3.4-3.4,7.5-4,11.9-2.3C574.5,225.9,575.9,228.8,575.5,232.8z"/>
	<path class="st34" d="M399.9,253.9c-2.3,0-4.2-0.9-5.3-3c-1.2-2.4-0.5-4.8,1.1-6.6c3.6-4.4,9-5.5,14.2-6.9c1.2-0.3,1.9,0.4,2.1,1.7
		C413.4,245.9,406.7,254.1,399.9,253.9z"/>
	<path class="st35" d="M521.7,254.4c-4.7,0-7.5-3.9-5.9-8.3c0.6-1.7,1.7-2.9,3.1-4c3.9-3.1,8.2-4.9,13.1-2.8
		c1.7,0.7,2.1,2.4,1.6,4.4C532.3,248.3,525.6,254.4,521.7,254.4z"/>
	<path class="st36" d="M702,235.3c0.6,0,0.2,0.1-0.2,0c-2.4-0.9-6.8,2.1-7.1-2.4c-0.4-4.6,7.7-9.4,12.8-8.3c4.1,0.9,6.6,3.4,5.7,7.9
		C712.7,235.3,711.9,235.5,702,235.3z"/>
	<path class="st37" d="M604.4,235.6c-2.5-1.1-7.2,2.6-8-3.1c-0.5-3.8,5.6-8.4,10.7-8.4c4.2,0,8.4,1.2,8.1,6.1
		C614.8,236.9,608.9,234.9,604.4,235.6z"/>
</g>
</svg>
