<?xml version="1.0" encoding="UTF-8"?>
<!DOCTYPE svg PUBLIC "-//W3C//DTD SVG 1.1//EN" "http://www.w3.org/Graphics/SVG/1.1/DTD/svg11.dtd">
<svg xmlns="http://www.w3.org/2000/svg" version="1.1" width="1400px" height="500px" style="shape-rendering:geometricPrecision; text-rendering:geometricPrecision; image-rendering:optimizeQuality; fill-rule:evenodd; clip-rule:evenodd" xmlns:xlink="http://www.w3.org/1999/xlink">
<g><path style="opacity:0.808" fill="#eda348" d="M 517.5,-0.5 C 518.5,-0.5 519.5,-0.5 520.5,-0.5C 517.585,7.07114 514.752,14.7378 512,22.5C 510.694,25.6207 508.86,28.2874 506.5,30.5C 507.42,25.7811 505.753,22.4478 501.5,20.5C 506.591,13.3202 511.924,6.3202 517.5,-0.5 Z"/></g>
<g><path style="opacity:0.975" fill="#fc8c00" d="M 501.5,20.5 C 505.753,22.4478 507.42,25.7811 506.5,30.5C 497.513,52.8088 486.679,74.1421 474,94.5C 419.259,184.242 346.425,255.409 255.5,308C 219.142,328.511 180.475,342.844 139.5,351C 114.848,354.338 100.848,343.672 97.5,319C 97.7002,314.626 99.3668,310.959 102.5,308C 132.945,305.805 161.945,298.139 189.5,285C 235.84,263.694 277.84,236.194 315.5,202.5C 318.516,201.657 321.183,200.157 323.5,198C 327.404,192.261 332.404,187.761 338.5,184.5C 339.275,182.604 340.275,180.937 341.5,179.5C 343.14,178.68 344.807,177.847 346.5,177C 382.225,147.687 416.059,116.187 448,82.5C 466.072,61.9361 483.905,41.2694 501.5,20.5 Z"/></g>
<g><path style="opacity:0.985" fill="#d3c900" d="M 317.5,84.5 C 318.821,90.8473 322.821,93.8473 329.5,93.5C 345.88,108.127 352.714,126.46 350,148.5C 347.263,158.876 344.429,169.209 341.5,179.5C 340.275,180.937 339.275,182.604 338.5,184.5C 332.404,187.761 327.404,192.261 323.5,198C 321.183,200.157 318.516,201.657 315.5,202.5C 281.655,213.163 254.489,204.163 234,175.5C 218.56,140.683 225.727,111.517 255.5,88C 275.502,75.4095 296.168,74.2429 317.5,84.5 Z"/></g>
<g><path style="opacity:0.802" fill="#e2d879" d="M 317.5,84.5 C 323.763,84.6186 327.763,87.6186 329.5,93.5C 322.821,93.8473 318.821,90.8473 317.5,84.5 Z"/></g>
<g><path style="opacity:0.93" fill="#d5cb01" d="M 384.5,104.5 C 388.311,105.645 392.311,105.812 396.5,105C 398.324,104.34 399.657,103.173 400.5,101.5C 405.299,99.865 409.966,100.198 414.5,102.5C 400.552,118.298 384.719,131.632 367,142.5C 365.893,142.415 364.893,142.081 364,141.5C 363.723,132.03 361.556,123.03 357.5,114.5C 358.427,111.53 360.427,109.697 363.5,109C 370.467,107.174 377.467,105.674 384.5,104.5 Z"/></g>
<g><path style="opacity:0.815" fill="#efe3a2" d="M 400.5,101.5 C 399.657,103.173 398.324,104.34 396.5,105C 392.311,105.812 388.311,105.645 384.5,104.5C 385.683,103.496 387.016,102.662 388.5,102C 392.486,101.501 396.486,101.334 400.5,101.5 Z"/></g>
<g><path style="opacity:0.985" fill="#39b314" d="M 482.5,101.5 C 483.496,101.414 484.329,101.748 485,102.5C 504.929,140.395 512.929,180.729 509,223.5C 504.25,272.135 487.417,315.968 458.5,355C 455.637,356.399 452.637,357.399 449.5,358C 419.651,351.839 398.817,362.672 387,390.5C 385.167,392.333 383.333,394.167 381.5,396C 330.655,418.503 277.488,432.003 222,436.5C 219.277,436.589 216.777,435.923 214.5,434.5C 280.298,376.217 339.131,311.884 391,241.5C 423.75,196.342 454.25,149.676 482.5,101.5 Z"/></g>
<g><path style="opacity:0.981" fill="#604283" d="M 148.5,117.5 C 178.808,115.226 199.975,127.892 212,155.5C 220.839,190.654 208.339,214.82 174.5,228C 144.582,236.272 121.415,227.439 105,201.5C 93.1385,170.764 100.305,145.597 126.5,126C 133.461,121.852 140.795,119.019 148.5,117.5 Z"/></g>
<g><path style="opacity:0.961" fill="#003848" d="M 584.5,137.5 C 595.505,137.333 606.505,137.5 617.5,138C 619.152,139.47 620.152,141.303 620.5,143.5C 612.69,187.686 606.19,232.019 601,276.5C 602.994,277.664 605.161,278.331 607.5,278.5C 616.457,277.95 625.624,277.616 635,277.5C 642.6,277.366 650.1,277.866 657.5,279C 659.007,280.473 659.674,282.307 659.5,284.5C 658.585,291.49 657.751,298.49 657,305.5C 656.535,306.931 655.701,308.097 654.5,309C 623.561,310.644 592.561,310.977 561.5,310C 560.667,309.167 559.833,308.333 559,307.5C 558.333,304.167 558.333,300.833 559,297.5C 566.442,246.515 573.775,195.515 581,144.5C 581.133,141.596 582.3,139.262 584.5,137.5 Z"/></g>
<g><path style="opacity:0.969" fill="#003b49" d="M 736.5,180.5 C 772.902,180.397 789.735,198.397 787,234.5C 784.674,245.491 778.174,252.658 767.5,256C 747.654,260.543 727.654,261.543 707.5,259C 707.605,268.815 712.271,275.815 721.5,280C 727.706,281.72 734.039,282.553 740.5,282.5C 749.559,281.799 758.559,280.965 767.5,280C 769.317,281.8 770.484,283.966 771,286.5C 772.33,292.452 772.663,298.452 772,304.5C 769.806,307.181 766.973,308.681 763.5,309C 745.945,312.72 728.279,313.387 710.5,311C 688.36,305.858 675.526,292.024 672,269.5C 669.037,230.577 684.871,202.411 719.5,185C 725.175,183 730.842,181.5 736.5,180.5 Z M 732.5,208.5 C 749.535,206.031 756.369,213.031 753,229.5C 751.829,230.893 750.329,231.727 748.5,232C 736.86,233.36 725.193,233.693 713.5,233C 712.106,232.044 711.439,230.711 711.5,229C 715.07,218.596 722.07,211.763 732.5,208.5 Z"/></g>
<g><path style="opacity:0.967" fill="#003b48" d="M 1066.5,180.5 C 1114.35,182.194 1134.85,206.86 1128,254.5C 1118.98,291.188 1095.65,310.855 1058,313.5C 1026.09,313.585 1007.76,297.918 1003,266.5C 999.723,230.212 1013.89,203.378 1045.5,186C 1052.43,183.352 1059.43,181.518 1066.5,180.5 Z M 1064.5,209.5 C 1077.43,208.207 1085.26,213.874 1088,226.5C 1092.03,244.224 1088.7,260.891 1078,276.5C 1068.82,285.884 1058.82,286.884 1048,279.5C 1036.23,256.568 1038.39,235.068 1054.5,215C 1057.55,212.497 1060.88,210.664 1064.5,209.5 Z"/></g>
<g><path style="opacity:0.962" fill="#003948" d="M 845.5,181.5 C 860.643,180.247 875.309,182.247 889.5,187.5C 890.665,190.535 890.498,193.535 889,196.5C 886.294,202.078 883.461,207.578 880.5,213C 875.154,212.115 869.821,210.781 864.5,209C 857.457,207.719 850.79,208.719 844.5,212C 840.151,217.583 840.817,222.583 846.5,227C 854.919,230.807 863.253,234.807 871.5,239C 885.551,249.151 890.051,262.651 885,279.5C 876.827,299.194 861.993,310.027 840.5,312C 829.034,313.124 817.7,312.457 806.5,310C 801.62,308.645 797.453,306.145 794,302.5C 794.256,294.061 796.756,286.227 801.5,279C 802.873,278.125 804.373,277.625 806,277.5C 814.583,281.396 823.583,283.729 833,284.5C 843.816,285.018 848.816,280.018 848,269.5C 847.117,266.898 845.617,264.731 843.5,263C 835.288,258.814 826.954,254.814 818.5,251C 809.4,244.804 804.733,236.137 804.5,225C 805.086,208.143 812.752,195.81 827.5,188C 833.435,185.303 839.435,183.136 845.5,181.5 Z"/></g>
<g><path style="opacity:0.962" fill="#003948" d="M 951.5,181.5 C 964.922,180.515 977.922,182.349 990.5,187C 992.227,188.389 993.561,190.056 994.5,192C 991.261,199.148 987.261,205.814 982.5,212C 980.167,212.667 977.833,212.667 975.5,212C 966.183,206.071 956.85,206.071 947.5,212C 942.492,217.106 943.159,221.772 949.5,226C 957.995,230.413 966.328,235.08 974.5,240C 987.655,252.458 991.155,267.292 985,284.5C 979.216,296.948 969.716,305.115 956.5,309C 937.783,313.452 919.117,313.119 900.5,308C 895.885,306.876 894.385,304.043 896,299.5C 899.116,292.103 902.616,284.936 906.5,278C 907.609,277.362 908.775,276.862 910,276.5C 914.824,278.649 919.657,280.815 924.5,283C 930.848,284.947 937.181,284.947 943.5,283C 952.213,276.796 952.546,270.129 944.5,263C 936.671,258.92 929.004,254.587 921.5,250C 907.855,238.466 904.355,224.3 911,207.5C 915.95,197.885 923.45,191.051 933.5,187C 939.519,184.835 945.519,183.001 951.5,181.5 Z"/></g>
<g><path style="opacity:0.966" fill="#003948" d="M 1221.5,182.5 C 1243.45,179.546 1257.62,188.546 1264,209.5C 1264.76,220.865 1264.43,232.199 1263,243.5C 1260.19,265.675 1256.53,287.675 1252,309.5C 1251.25,310.126 1250.42,310.626 1249.5,311C 1242.82,311.389 1236.16,311.889 1229.5,312.5C 1218.76,312.934 1214.26,307.934 1216,297.5C 1217.21,293.55 1218.21,289.55 1219,285.5C 1221.03,267.482 1223.19,249.482 1225.5,231.5C 1224.99,219.826 1218.99,214.993 1207.5,217C 1198.8,219.705 1192.63,225.205 1189,233.5C 1184.5,256.687 1180.83,280.021 1178,303.5C 1176.98,308.606 1173.82,311.273 1168.5,311.5C 1159.44,311.769 1150.44,311.269 1141.5,310C 1138.64,306.319 1137.81,302.152 1139,297.5C 1140.65,292.246 1141.98,286.913 1143,281.5C 1147.54,250.077 1152.54,218.744 1158,187.5C 1159.74,185.129 1162.08,183.795 1165,183.5C 1171.89,184.025 1178.72,184.858 1185.5,186C 1187.77,187.558 1188.93,189.724 1189,192.5C 1189.48,195.907 1189.48,199.24 1189,202.5C 1198.12,192.867 1208.95,186.2 1221.5,182.5 Z"/></g>
<g><path style="opacity:0.971" fill="#604183" d="M 89.5,186.5 C 93.5064,194.187 97.3397,202.187 101,210.5C 116.674,237.07 139.841,247.903 170.5,243C 187.432,239.455 201.266,230.955 212,217.5C 218.029,208.765 223.529,199.765 228.5,190.5C 240.393,204.386 255.393,212.72 273.5,215.5C 273.677,217.981 272.677,219.814 270.5,221C 239.096,242.705 206.429,262.371 172.5,280C 157.173,287.163 141.506,293.497 125.5,299C 106.272,304.726 87.6049,303.393 69.5,295C 61.5538,287.846 57.8871,278.846 58.5,268C 60.0968,237.34 70.4301,210.173 89.5,186.5 Z"/></g>
<g><path style="opacity:0.801" fill="#dfac58" d="M 303.5,314.5 C 304.363,311.626 305.697,308.959 307.5,306.5C 307.547,304.962 306.88,303.962 305.5,303.5C 310.981,295.624 317.981,290.291 326.5,287.5C 322.58,293.674 318.413,299.674 314,305.5C 310.922,309.085 307.422,312.085 303.5,314.5 Z"/></g>
<g><path style="opacity:0.969" fill="#fe9300" d="M 305.5,303.5 C 306.88,303.962 307.547,304.962 307.5,306.5C 305.697,308.959 304.363,311.626 303.5,314.5C 262.842,367.992 215.176,414.159 160.5,453C 146.465,456.397 136.965,451.23 132,437.5C 129.069,421.588 128.736,405.588 131,389.5C 131.833,387.333 133.333,385.833 135.5,385C 180.043,377.27 221.043,360.936 258.5,336C 274.196,325.157 289.862,314.323 305.5,303.5 Z"/></g>
<g><path style="opacity:0.899" fill="#003c40" d="M 1289.5,333.5 C 1295.32,334.913 1296.98,338.413 1294.5,344C 1295.14,347.579 1297.31,349.412 1301,349.5C 1308.56,347.158 1311.39,349.658 1309.5,357C 1304.86,357.365 1300.19,358.032 1295.5,359C 1293.51,360.319 1292.35,362.152 1292,364.5C 1290.59,377.144 1289.93,389.811 1290,402.5C 1293.6,404.427 1297.1,406.427 1300.5,408.5C 1298.46,412.942 1294.96,415.276 1290,415.5C 1281.83,414.826 1277,410.493 1275.5,402.5C 1277.6,388.544 1279.1,374.544 1280,360.5C 1278.12,358.98 1275.95,357.98 1273.5,357.5C 1270.32,351.478 1272.32,348.644 1279.5,349C 1280.93,348.535 1282.1,347.701 1283,346.5C 1283.79,343.529 1284.46,340.529 1285,337.5C 1285.91,335.391 1287.41,334.058 1289.5,333.5 Z"/></g>
<g><path style="opacity:0.895" fill="#003c40" d="M 571.5,346.5 C 576.568,346.601 578.901,349.267 578.5,354.5C 582.474,353.379 586.14,351.546 589.5,349C 594.194,347.068 598.861,347.068 603.5,349C 606.711,352.042 609.711,355.209 612.5,358.5C 620.696,347.064 631.029,344.564 643.5,351C 649.304,355.778 651.971,361.945 651.5,369.5C 649.956,384.269 647.29,398.769 643.5,413C 638.949,415.631 635.615,414.631 633.5,410C 636.918,395.331 638.752,380.497 639,365.5C 634.133,356.215 627.633,355.048 619.5,362C 617.623,364.251 616.123,366.751 615,369.5C 612.721,382.451 610.721,395.451 609,408.5C 606.8,414.769 602.8,416.102 597,412.5C 598.499,398.167 600.333,383.834 602.5,369.5C 601.924,362.424 598.09,359.09 591,359.5C 584.517,359.306 580.183,362.306 578,368.5C 575.043,383.114 572.376,397.78 570,412.5C 566.667,415.167 563.333,415.167 560,412.5C 562.114,392.806 564.781,373.14 568,353.5C 568.133,350.596 569.3,348.262 571.5,346.5 Z"/></g>
<g><path style="opacity:0.913" fill="#003f48" d="M 679.5,347.5 C 687.961,346.598 695.961,348.098 703.5,352C 709.745,357.071 712.245,363.571 711,371.5C 708.774,385.19 706.441,398.857 704,412.5C 702.981,413.687 701.814,414.687 700.5,415.5C 697.476,413.465 694.476,411.465 691.5,409.5C 687.266,411.568 682.932,413.401 678.5,415C 667.271,416.969 660.105,412.469 657,401.5C 656.268,393.791 658.768,387.291 664.5,382C 673.259,375.08 683.259,371.747 694.5,372C 695.667,371.5 696.5,370.667 697,369.5C 698.758,363.85 696.924,360.017 691.5,358C 685.169,355.995 679.002,356.495 673,359.5C 669.332,358.496 667.998,356.163 669,352.5C 672.404,350.379 675.904,348.712 679.5,347.5 Z M 691.5,379.5 C 695.495,378.884 697.495,380.55 697.5,384.5C 695.541,399.305 687.207,406.138 672.5,405C 668.673,401.692 667.506,397.526 669,392.5C 675.151,385.679 682.651,381.346 691.5,379.5 Z"/></g>
<g><path style="opacity:0.894" fill="#003f47" d="M 754.5,347.5 C 766.617,346.463 774.117,351.796 777,363.5C 776.844,378.908 775.511,394.242 773,409.5C 769.975,414.397 765.975,415.397 761,412.5C 762.366,397.939 764.199,383.439 766.5,369C 763.145,356.499 756.145,354.166 745.5,362C 742.567,364.264 740.4,367.098 739,370.5C 736.223,384.167 733.556,397.833 731,411.5C 727.333,414.167 723.667,414.167 720,411.5C 722.251,391.165 724.917,370.831 728,350.5C 734.387,347.356 737.887,349.356 738.5,356.5C 740.308,356.509 741.975,356.009 743.5,355C 746.92,351.971 750.587,349.471 754.5,347.5 Z"/></g>
<g><path style="opacity:0.895" fill="#003f46" d="M 799.5,347.5 C 803.523,348.025 805.69,350.359 806,354.5C 806.561,355.022 807.228,355.355 808,355.5C 811.721,354.057 815.221,352.223 818.5,350C 834.963,345.895 844.296,352.228 846.5,369C 844.334,382.825 842.168,396.658 840,410.5C 835.997,416.884 831.831,417.051 827.5,411C 830.475,397.484 832.808,383.818 834.5,370C 834.333,362.5 830.5,358.667 823,358.5C 814.879,359.058 809.213,363.058 806,370.5C 803.141,384.408 800.974,398.408 799.5,412.5C 795.833,415.167 792.167,415.167 788.5,412.5C 789.682,392.053 792.516,371.72 797,351.5C 797.662,350.016 798.496,348.683 799.5,347.5 Z"/></g>
<g><path style="opacity:0.909" fill="#003f46" d="M 878.5,347.5 C 891.898,346.271 900.731,351.938 905,364.5C 905.402,380.955 904.069,397.289 901,413.5C 898.581,416.737 895.915,417.07 893,414.5C 892.667,412.5 892.333,410.5 892,408.5C 885.432,412.283 878.432,414.95 871,416.5C 861.254,415.423 855.254,410.089 853,400.5C 853.727,387.264 860.56,378.764 873.5,375C 879.461,374.003 885.461,373.337 891.5,373C 892,372.5 892.5,372 893,371.5C 893.271,360.113 887.771,355.613 876.5,358C 873.95,359.442 871.284,360.608 868.5,361.5C 864.758,358.816 864.091,355.649 866.5,352C 870.571,350.37 874.571,348.87 878.5,347.5 Z M 879.5,381.5 C 895.685,379.942 898.851,385.608 889,398.5C 884.194,404.49 878.027,406.99 870.5,406C 868.714,405.215 867.214,404.049 866,402.5C 864.055,395.676 865.888,390.176 871.5,386C 874.099,384.205 876.766,382.705 879.5,381.5 Z"/></g>
<g><path style="opacity:0.899" fill="#004145" d="M 1076.5,347.5 C 1079.57,347.547 1082.57,348.047 1085.5,349C 1089.06,351.736 1092.39,354.569 1095.5,357.5C 1099.61,355.234 1103.61,352.734 1107.5,350C 1120.41,346.203 1128.91,350.703 1133,363.5C 1132.66,378.227 1131.33,392.894 1129,407.5C 1128.84,409.676 1128,411.509 1126.5,413C 1123.83,413.667 1121.17,413.667 1118.5,413C 1117.71,411.915 1117.04,410.748 1116.5,409.5C 1119.73,395.341 1121.23,381.007 1121,366.5C 1116.37,359.211 1110.2,357.711 1102.5,362C 1100.29,363.873 1098.46,366.04 1097,368.5C 1094.35,382.401 1092.35,396.401 1091,410.5C 1087.33,414.5 1083.67,414.5 1080,410.5C 1080.84,397.131 1082.34,383.797 1084.5,370.5C 1084.71,363.88 1081.54,360.213 1075,359.5C 1070.92,359.914 1067.09,361.081 1063.5,363C 1062.54,364.419 1061.71,365.919 1061,367.5C 1058.59,382.224 1055.92,396.89 1053,411.5C 1049.38,414.343 1046.05,414.01 1043,410.5C 1043.46,396.721 1045.13,383.055 1048,369.5C 1048.33,364.167 1048.67,358.833 1049,353.5C 1050.13,352.056 1051.63,351.39 1053.5,351.5C 1056.47,352.068 1059.31,353.068 1062,354.5C 1066.99,352.256 1071.82,349.922 1076.5,347.5 Z"/></g>
<g><path style="opacity:0.898" fill="#003f41" d="M 1240.5,347.5 C 1249.76,347.538 1255.93,351.872 1259,360.5C 1260.49,368.445 1260.82,376.445 1260,384.5C 1258.55,393.871 1256.88,403.204 1255,412.5C 1251.7,415.017 1248.37,415.017 1245,412.5C 1246.15,397.513 1247.15,382.513 1248,367.5C 1246.99,361.663 1243.49,358.996 1237.5,359.5C 1232.56,359.313 1228.39,360.979 1225,364.5C 1222.57,369.236 1220.9,374.236 1220,379.5C 1218.24,389.484 1216.57,399.484 1215,409.5C 1214.53,410.931 1213.7,412.097 1212.5,413C 1209.83,413.667 1207.17,413.667 1204.5,413C 1203.71,411.915 1203.04,410.748 1202.5,409.5C 1205.33,390.168 1208.17,370.835 1211,351.5C 1213.15,349.556 1215.65,349.056 1218.5,350C 1220,352.482 1221.5,354.982 1223,357.5C 1227.96,352.442 1233.79,349.108 1240.5,347.5 Z"/></g>
<g><path style="opacity:0.915" fill="#003e45" d="M 969.5,348.5 C 973.531,348.034 975.531,349.867 975.5,354C 972.427,374.514 969.26,395.014 966,415.5C 957.169,438.499 941.002,446.332 917.5,439C 913.895,435.685 913.561,432.018 916.5,428C 922.08,428.972 927.747,429.805 933.5,430.5C 943.118,430.778 949.618,426.445 953,417.5C 953.784,413.95 954.617,410.45 955.5,407C 949.825,410.065 943.658,412.232 937,413.5C 926.404,411.701 919.404,405.701 916,395.5C 914.25,383.95 915.917,372.95 921,362.5C 925.153,356.004 930.987,351.838 938.5,350C 946.242,349.267 953.909,349.767 961.5,351.5C 964.658,351.579 967.325,350.579 969.5,348.5 Z M 946.5,356.5 C 954.034,356.76 959.368,360.26 962.5,367C 961.815,375.272 960.315,383.439 958,391.5C 951.445,404.207 942.111,406.874 930,399.5C 926.327,387.926 926.994,376.592 932,365.5C 935.768,360.545 940.601,357.545 946.5,356.5 Z"/></g>
<g><path style="opacity:0.907" fill="#014044" d="M 1009.5,348.5 C 1025.96,345.878 1035.3,352.711 1037.5,369C 1037.68,375.312 1035.01,379.979 1029.5,383C 1019.56,384.229 1009.56,384.896 999.5,385C 995.088,386.112 993.588,388.946 995,393.5C 997.44,400.308 1002.27,404.142 1009.5,405C 1016.09,405.151 1022.59,405.317 1029,405.5C 1029.9,408.025 1029.4,410.192 1027.5,412C 1014.35,417.586 1002.02,416.252 990.5,408C 979.033,393.328 978.533,378.161 989,362.5C 994.667,355.932 1001.5,351.265 1009.5,348.5 Z M 1007.5,358.5 C 1013.43,357.889 1019.1,358.722 1024.5,361C 1027.88,366.718 1026.88,371.384 1021.5,375C 1013.81,375.57 1006.15,375.904 998.5,376C 996.077,372.621 995.91,369.121 998,365.5C 1000.79,362.535 1003.96,360.202 1007.5,358.5 Z"/></g>
<g><path style="opacity:0.912" fill="#014247" d="M 1170.5,348.5 C 1191.11,349.07 1199.28,359.404 1195,379.5C 1194.17,381.667 1192.67,383.167 1190.5,384C 1180.19,385.741 1169.86,385.908 1159.5,384.5C 1157.63,384.39 1156.13,385.056 1155,386.5C 1153.12,396.246 1156.95,402.413 1166.5,405C 1173.41,405.013 1180.25,405.179 1187,405.5C 1189.21,410.018 1187.71,412.851 1182.5,414C 1172.1,416.687 1162.1,415.687 1152.5,411C 1145.08,405.163 1141.42,397.496 1141.5,388C 1142.23,368.127 1151.89,354.96 1170.5,348.5 Z M 1170.5,358.5 C 1182.5,358.129 1186.83,363.463 1183.5,374.5C 1174.53,375.805 1165.53,375.805 1156.5,374.5C 1155.22,371.273 1155.72,368.273 1158,365.5C 1161.74,362.219 1165.91,359.885 1170.5,358.5 Z"/></g>
<g><path style="opacity:0.975" fill="#36b316" d="M 428.5,362.5 C 455.256,359.783 471.422,371.449 477,397.5C 479.52,417.281 472.687,432.781 456.5,444C 432.587,454.982 413.087,449.815 398,428.5C 385.235,395.704 395.402,373.704 428.5,362.5 Z"/></g>
<g><path style="opacity:0.95" fill="#008ed3" d="M 380.5,415.5 C 383.652,414.959 386.152,415.959 388,418.5C 390.113,429.727 395.113,439.394 403,447.5C 403.667,448.833 403.667,450.167 403,451.5C 399.217,454.098 395.05,455.932 390.5,457C 334.569,474.093 277.902,477.093 220.5,466C 209.845,463.393 199.512,459.893 189.5,455.5C 256.131,455.974 319.798,442.641 380.5,415.5 Z"/></g>
</svg>
