<?xml version="1.0" encoding="utf-8"?>
<!-- Generator: Adobe Illustrator 26.1.0, SVG Export Plug-In . SVG Version: 6.00 Build 0)  -->
<svg version="1.1" id="Capa_1" xmlns="http://www.w3.org/2000/svg" xmlns:xlink="http://www.w3.org/1999/xlink" x="0px" y="0px"
	 viewBox="0 0 300 300" style="enable-background:new 0 0 300 300;" xml:space="preserve">
<style type="text/css">
	.st0{fill:#6EB130;}
	.st1{fill:#E48C18;}
	.st2{fill:#D0C814;}
	.st3{fill:#5A4380;}
	.st4{fill:#5A4480;}
	.st5{fill:#E99219;}
	.st6{fill:#6DB131;}
	.st7{fill:#2E8ED0;}
	.st8{fill:#D1CA1A;}
	.st9{fill:#DBA250;}
	.st10{fill:#D2AA5E;}
	.st11{fill:#DED77E;}
	.st12{fill:#EAE29F;}
</style>
<path class="st0" d="M103.3,274.3c34.8-29.3,64.5-62.4,92.4-97.2c28-34.9,52.7-72.1,75.9-111.4c7.6,12.9,11.9,26.1,14.2,39.9
	c6.3,38.7-2.5,74.4-22.4,107.8c-0.2,0.4-0.6,0.7-0.7,1.1c-3.5,9-8.4,13.2-19.6,11.4c-13.7-2.2-24.4,5.2-30.7,17.9
	c-1.5,3.1-3.3,5.5-6.6,6.9c-31.9,13.7-65.1,22.2-99.8,24.5C105.3,275.2,104.8,274.8,103.3,274.3z"/>
<path class="st1" d="M185.7,113.4c14.2-11.8,28.2-23.9,41.6-36.6c18.6-17.6,35.2-37,51.7-56.6c1.3-1.5,2.5-3.1,3.8-4.7
	c5.7-0.6,3.6,3.1,3.2,5.9c-9.3,21.4-20.9,41.5-34.4,60.6c-33.5,47.3-74.5,86.2-125.4,114.2c-19.8,10.9-40.8,19.1-62.8,24.4
	c-6.2,1.5-12.7,1.7-19,0.9c-8.8-1-16.7-16-13-24c0.9-1.9,2.2-2.5,4.1-2.6c24.5-0.9,46.4-10.5,67.6-21.6
	c23.1-12.1,44.5-26.7,63.9-44.2c2.9-5,7.1-8.7,12-11.8C181.3,116.1,183.3,114.4,185.7,113.4z"/>
<path class="st2" d="M180.5,118.3c-5.7,2.1-8.2,8.1-13.4,10.7c-3.5-1.6-6.9-0.2-9.9,0.9c-17.5,6.1-40.7-9.1-44.9-26.4
	c-4.2-17.1,0.2-32,13.8-43.6c12.5-10.6,26.5-11,41.2-4.8c2.1,2.5,5.3,3.5,7.9,5.4c11.7,11.5,16,25,11,41c-1.1,3.4-2.1,6.9-3.2,10.3
	C182.2,114.1,181.8,116.4,180.5,118.3z"/>
<path class="st3" d="M25.2,119.3c8.5,24.8,20.3,35.2,40.7,36.1c20.1,0.9,34.8-9.8,45.7-33.7c7.7,8.3,16.4,14.7,28.2,15.8
	c-0.2,0.8-0.2,1.6-0.6,1.9c-27.3,18.3-54.9,36.4-86,47.8c-10.5,3.8-21.2,5.7-32.3,3c-10.8-2.6-14.9-8-15-19.2
	C5.7,153.3,14.9,128.9,25.2,119.3z"/>
<path class="st4" d="M65.7,146.6c-19.8,0-34.5-14.7-34.5-34.5c0-19.8,16.3-36,36-35.9c20.6,0.1,36.3,16.3,36.1,37.3
	C103.1,131,85.4,146.6,65.7,146.6z"/>
<path class="st5" d="M159.1,198.8c-16,20.2-33.3,39.4-52.5,56.6C96.4,264.6,85.6,273.3,75,282c-10.4,8.6-21.3,4.3-24-9
	c-1.8-8.6-0.5-17,0-25.5c0.3-5.1,5.1-4.2,8.1-4.8c19.8-4,38.6-10.6,56.3-20.7c15.7-8.9,30.4-19.1,44.8-29.8c2.7,0,2.6,1.5,1.6,3.2
	C161.1,196.7,160,197.7,159.1,198.8z"/>
<path class="st6" d="M267.5,256c-0.1,16.2-11.5,27.8-27.1,27.6c-14.6-0.3-25.6-12.2-25.6-27.8c0-14.5,13.2-26.5,28.8-26.3
	C257.7,229.6,267.6,240.6,267.5,256z"/>
<path class="st7" d="M88,287.4c41.1,1.8,79.6-8.3,117.1-23.6c3.6-1.5,6-1.8,7,3.1c1,4.7,2.9,9.3,6.4,12.8c4.2,4.2,2.5,5.9-2.2,7.3
	c-16.6,5.1-33.5,9-50.8,10.2c-24.2,1.6-48.3,0.8-71.5-7.4C92,289.2,90,288.3,88,287.4z"/>
<path class="st8" d="M220,66c2.4-0.1,4.7-0.8,7.7,0.4c-8.1,8.8-16.9,16.3-26.1,23.3c-3.1,2.4-5.1,1.9-5.3-2.3
	c-0.1-1.3-0.3-2.7-0.1-3.9c0.7-4.2-5.2-8.9-1.9-11.4c3.8-2.8,9.9-2.6,15-3.7C212.7,66.9,216.6,67.5,220,66z"/>
<path class="st9" d="M286,21.4c-0.5-2.3,0.7-5.5-3.2-5.9c2.8-3.6,5.5-7.2,8.4-10.8c0.5-0.6,1.1-1,3.1-2.7
	C291.1,9.6,290,16.1,286,21.4z"/>
<path class="st10" d="M159.1,198.8c-0.9-2.4,4.6-3.7,1.2-6.6c3.2-4.4,7.8-7.1,12.3-10C168.8,188.4,165.1,194.6,159.1,198.8z"/>
<path class="st11" d="M175,60.6c-4,0.2-6.7-1.4-7.9-5.4C170.5,56,173.8,56.8,175,60.6z"/>
<path class="st12" d="M220,66c-3.1,3.1-7,2.4-10.7,2.3C212.3,65.3,216.2,65.8,220,66z"/>
</svg>
